<svg width="10" height="10" viewBox="0 0 10 10" fill="none" xmlns="http://www.w3.org/2000/svg">
<path d="M9.70589 9.11758L0.882338 0.294108C0.719977 0.13175 0.456452 0.131773 0.294118 0.294105C0.131785 0.456437 0.131786 0.719984 0.294122 0.882318L9.11768 9.70579C9.28004 9.86814 9.54356 9.86812 9.7059 9.70579C9.86823 9.54346 9.86825 9.27994 9.70589 9.11758Z" fill="#979797"/>
<path d="M0.294137 9.11758L9.11769 0.294108C9.28005 0.13175 9.54358 0.131773 9.70591 0.294105C9.86825 0.456437 9.86824 0.719984 9.70591 0.882318L0.882353 9.70579C0.719992 9.86814 0.456467 9.86812 0.294134 9.70579C0.1318 9.54346 0.131777 9.27994 0.294137 9.11758Z" fill="#979797"/>
</svg>
