<svg width="25" height="18" viewBox="0 0 25 18" fill="none" xmlns="http://www.w3.org/2000/svg">
<g filter="url(#filter0_d)">
<path d="M1.71873 2.2667H23.2813C23.678 2.2667 24 2.0128 24 1.70003C24 1.38721 23.678 1.13336 23.2813 1.13336H1.71873C1.32197 1.13336 1 1.38726 1 1.70003C1 2.0128 1.32203 2.2667 1.71873 2.2667Z" fill="#262D33"/>
<path d="M23.2813 7.93335H1.71873C1.32197 7.93335 1 8.18724 1 8.50002C1 8.81279 1.32203 9.06668 1.71873 9.06668H23.2813C23.678 9.06668 24 8.81279 24 8.50002C24 8.18724 23.678 7.93335 23.2813 7.93335Z" fill="#262D33"/>
<path d="M23.2727 14.7333H8.72726C8.32578 14.7333 8 14.9872 8 15.3C8 15.6128 8.32584 15.8667 8.72726 15.8667H23.2727C23.6742 15.8667 24 15.6128 24 15.3C24.0001 14.9872 23.6742 14.7333 23.2727 14.7333Z" fill="#262D33"/>
</g>
<defs>
<filter id="filter0_d" x="0" y="0" width="25" height="19" filterUnits="userSpaceOnUse" color-interpolation-filters="sRGB">
<feFlood flood-opacity="0" result="BackgroundImageFix"/>
<feColorMatrix in="SourceAlpha" type="matrix" values="0 0 0 0 0 0 0 0 0 0 0 0 0 0 0 0 0 0 127 0"/>
<feOffset dy="1"/>
<feGaussianBlur stdDeviation="0.5"/>
<feColorMatrix type="matrix" values="0 0 0 0 0.14902 0 0 0 0 0.176471 0 0 0 0 0.2 0 0 0 0.25 0"/>
<feBlend mode="normal" in2="BackgroundImageFix" result="effect1_dropShadow"/>
<feBlend mode="normal" in="SourceGraphic" in2="effect1_dropShadow" result="shape"/>
</filter>
</defs>
</svg>
