<svg width="30" height="30" viewBox="0 0 30 30" fill="none" xmlns="http://www.w3.org/2000/svg">
<circle cx="15" cy="15" r="15" fill="#FFCC00"/>
<g clip-path="url(#clip0)" filter="url(#filter0_d)">
<path d="M20.838 11.0769H9.16143C9.03511 11.0661 8.90993 11.1079 8.81527 11.1922C8.72221 11.2816 8.6791 11.411 8.6999 11.5384L9.89986 21.992C10.0406 23.1445 11.0234 24.0082 12.1844 23.9996H17.9996C19.1933 24.0166 20.1989 23.1116 20.3073 21.9227L21.2995 11.4922C21.3057 11.3803 21.2637 11.2712 21.1841 11.1922C21.0895 11.1079 20.9644 11.0661 20.838 11.0769ZM19.3842 21.8766C19.3117 22.5793 18.7055 23.1046 17.9997 23.0765H12.1844C11.4912 23.1047 10.8954 22.5896 10.8229 21.8996L9.66912 11.9999H20.3304L19.3842 21.8766Z" fill="#262D33"/>
<path d="M22.5227 8.07688H17.7689V7.33841C17.7946 6.62516 17.2371 6.02622 16.5239 6.0006C16.5005 5.99976 16.477 5.99954 16.4536 5.99998H13.546C12.8324 5.98677 12.2432 6.55453 12.23 7.26813C12.2296 7.29154 12.2298 7.315 12.2307 7.33841V8.07683H7.47691C7.22201 8.07683 7.01538 8.28346 7.01538 8.53836C7.01538 8.79326 7.22201 8.99989 7.47691 8.99989H22.5227C22.7776 8.99989 22.9842 8.79326 22.9842 8.53836C22.9842 8.28346 22.7775 8.07688 22.5227 8.07688ZM16.8459 7.33841V8.07683H13.1537V7.33841C13.1276 7.13615 13.2705 6.95113 13.4728 6.92511C13.497 6.92198 13.5215 6.92131 13.5459 6.92304H16.4536C16.657 6.90864 16.8336 7.06182 16.848 7.26526C16.8497 7.28964 16.849 7.31416 16.8459 7.33841Z" fill="#262D33"/>
</g>
<defs>
<filter id="filter0_d" x="5" y="6" width="20" height="20" filterUnits="userSpaceOnUse" color-interpolation-filters="sRGB">
<feFlood flood-opacity="0" result="BackgroundImageFix"/>
<feColorMatrix in="SourceAlpha" type="matrix" values="0 0 0 0 0 0 0 0 0 0 0 0 0 0 0 0 0 0 127 0"/>
<feOffset dy="1"/>
<feGaussianBlur stdDeviation="0.5"/>
<feColorMatrix type="matrix" values="0 0 0 0 0.14902 0 0 0 0 0.176471 0 0 0 0 0.2 0 0 0 0.25 0"/>
<feBlend mode="normal" in2="BackgroundImageFix" result="effect1_dropShadow"/>
<feBlend mode="normal" in="SourceGraphic" in2="effect1_dropShadow" result="shape"/>
</filter>
<clipPath id="clip0">
<rect width="18" height="18" fill="white" transform="translate(6 6)"/>
</clipPath>
</defs>
</svg>
