<svg width="30" height="30" viewBox="0 0 30 30" fill="none" xmlns="http://www.w3.org/2000/svg">
<circle cx="15" cy="15" r="15" fill="#FFCC00"/>
<g filter="url(#filter0_d)">
<path d="M21.495 7.23611C20.5878 6.33048 19.1186 6.33048 18.2114 7.23611L17.3894 8.06257L8.63972 16.8076L8.62112 16.8264C8.61662 16.8309 8.61662 16.8357 8.61183 16.8357C8.60253 16.8496 8.58858 16.8634 8.57943 16.8774C8.57943 16.882 8.57464 16.882 8.57464 16.8866C8.56534 16.9006 8.56084 16.9099 8.55139 16.9238C8.54689 16.9285 8.54689 16.933 8.54224 16.9378C8.53759 16.9517 8.53294 16.961 8.52815 16.975C8.52815 16.9795 8.52365 16.9795 8.52365 16.9843L6.58235 22.822C6.52541 22.9881 6.5687 23.1722 6.69378 23.2955C6.78167 23.3823 6.90021 23.4308 7.02355 23.4304C7.07396 23.4295 7.12393 23.4216 7.17216 23.4071L13.0053 21.4612C13.0098 21.4612 13.0098 21.4612 13.0146 21.4567C13.0293 21.4523 13.0434 21.4461 13.0563 21.4379C13.06 21.4375 13.0632 21.4359 13.0658 21.4334C13.0796 21.4241 13.0982 21.4147 13.1121 21.4054C13.1259 21.3962 13.14 21.3823 13.154 21.373C13.1586 21.3682 13.1631 21.3682 13.1631 21.3637C13.1679 21.359 13.1772 21.3545 13.1818 21.3451L22.7535 11.7734C23.6591 10.8662 23.6591 9.39706 22.7535 8.48997L21.495 7.23611ZM12.8567 20.3697L9.62439 17.1375L17.7145 9.04739L20.9469 12.2796L12.8567 20.3697ZM9.1691 17.9967L11.9929 20.8204L7.75268 22.2321L9.1691 17.9967ZM22.0988 11.1232L21.6064 11.6202L18.3739 8.3877L18.8711 7.89086C19.4148 7.34754 20.2962 7.34754 20.8401 7.89086L22.1033 9.15402C22.643 9.70025 22.6409 10.5796 22.0988 11.1232Z" fill="#262D33"/>
</g>
<defs>
<filter id="filter0_d" x="5" y="6" width="20" height="20" filterUnits="userSpaceOnUse" color-interpolation-filters="sRGB">
<feFlood flood-opacity="0" result="BackgroundImageFix"/>
<feColorMatrix in="SourceAlpha" type="matrix" values="0 0 0 0 0 0 0 0 0 0 0 0 0 0 0 0 0 0 127 0"/>
<feOffset dy="1"/>
<feGaussianBlur stdDeviation="0.5"/>
<feColorMatrix type="matrix" values="0 0 0 0 0.14902 0 0 0 0 0.176471 0 0 0 0 0.2 0 0 0 0.25 0"/>
<feBlend mode="normal" in2="BackgroundImageFix" result="effect1_dropShadow"/>
<feBlend mode="normal" in="SourceGraphic" in2="effect1_dropShadow" result="shape"/>
</filter>
</defs>
</svg>
