<svg width="25" height="25" viewBox="0 0 25 25" fill="none" xmlns="http://www.w3.org/2000/svg">
<circle cx="12.5" cy="12.5" r="12.5" fill="#FFCC00"/>
<g filter="url(#filter0_d)">
<path d="M13.0001 16.1417C13.5361 16.1417 13.9822 15.7311 14.0273 15.197L14.7241 6.87488C14.7647 6.39223 14.6011 5.91509 14.2734 5.55872C13.9462 5.20281 13.4841 5 13.0001 5C12.5161 5 12.054 5.20281 11.7268 5.55872C11.3991 5.91509 11.2355 6.39223 11.2761 6.87488L11.9729 15.197C12.018 15.7311 12.4642 16.1417 13.0001 16.1417Z" fill="#262D33"/>
<path d="M13.0001 16.7542C12.3799 16.7542 11.8772 17.2568 11.8772 17.8771C11.8772 18.4973 12.3799 19 13.0001 19C13.6204 19 14.1231 18.4973 14.1231 17.8771C14.1231 17.2568 13.6204 16.7542 13.0001 16.7542Z" fill="#262D33"/>
</g>
<defs>
<filter id="filter0_d" x="6" y="5" width="16" height="16" filterUnits="userSpaceOnUse" color-interpolation-filters="sRGB">
<feFlood flood-opacity="0" result="BackgroundImageFix"/>
<feColorMatrix in="SourceAlpha" type="matrix" values="0 0 0 0 0 0 0 0 0 0 0 0 0 0 0 0 0 0 127 0"/>
<feOffset dx="1" dy="1"/>
<feGaussianBlur stdDeviation="0.5"/>
<feColorMatrix type="matrix" values="0 0 0 0 0 0 0 0 0 0 0 0 0 0 0 0 0 0 0.25 0"/>
<feBlend mode="normal" in2="BackgroundImageFix" result="effect1_dropShadow"/>
<feBlend mode="normal" in="SourceGraphic" in2="effect1_dropShadow" result="shape"/>
</filter>
</defs>
</svg>
